<svg width="8" height="12" viewBox="0 0 8 12" fill="none" xmlns="http://www.w3.org/2000/svg">
<path d="M1 3.77778V8.22222C1 8.95894 1.31607 9.66547 1.87868 10.1864C2.44129 10.7073 3.20435 11 4 11C4.79565 11 5.55871 10.7073 6.12132 10.1864C6.68393 9.66547 7 8.95894 7 8.22222V2.94444C7 2.42875 6.77875 1.93417 6.38492 1.56951C5.9911 1.20486 5.45695 1 4.9 1C4.34305 1 3.8089 1.20486 3.41508 1.56951C3.02125 1.93417 2.8 2.42875 2.8 2.94444V7.66667C2.8 7.96135 2.92643 8.24397 3.15147 8.45234C3.37652 8.66071 3.68174 8.77778 4 8.77778C4.31826 8.77778 4.62348 8.66071 4.84853 8.45234C5.07357 8.24397 5.2 7.96135 5.2 7.66667V3.77778" stroke="#1166D2" stroke-linecap="round" stroke-linejoin="round"/>
</svg>
