<svg width="17" height="19" viewBox="0 0 17 19" fill="none" xmlns="http://www.w3.org/2000/svg">
<path d="M8.73395 7.1365C8.24666 7.08838 7.7564 7.19205 7.3303 7.43331C6.90421 7.67458 6.5631 8.04165 6.35368 8.48427C6.14427 8.9269 6.07678 9.42342 6.16046 9.90588C6.24414 10.3883 6.4749 10.8331 6.82114 11.1794C7.16739 11.5256 7.61219 11.7564 8.09464 11.8401C8.5771 11.9237 9.07363 11.8563 9.51625 11.6468C9.95887 11.4374 10.3259 11.0963 10.5672 10.6702C10.8085 10.2441 10.9121 9.75387 10.864 9.26658C10.8092 8.72032 10.5671 8.20983 10.1789 7.82162C9.7907 7.43342 9.28021 7.19137 8.73395 7.1365ZM14.4525 9.5C14.451 9.75816 14.4321 10.0159 14.3957 10.2715L16.0734 11.5874C16.1465 11.648 16.1957 11.7325 16.2124 11.8259C16.229 11.9193 16.212 12.0156 16.1644 12.0977L14.5772 14.8438C14.529 14.925 14.4536 14.9867 14.3644 15.0178C14.2752 15.049 14.1779 15.0477 14.0896 15.0141L12.4234 14.3431C12.3315 14.3066 12.232 14.2933 12.1337 14.3047C12.0355 14.316 11.9416 14.3515 11.8604 14.4081C11.6061 14.5832 11.3389 14.7388 11.0611 14.8734C10.9737 14.9159 10.8982 14.9792 10.8411 15.0578C10.784 15.1363 10.7472 15.2278 10.7338 15.3239L10.484 17.1011C10.4676 17.195 10.4191 17.2802 10.3468 17.3423C10.2746 17.4044 10.183 17.4394 10.0877 17.4414H6.91336C6.81967 17.4398 6.72933 17.4063 6.65723 17.3465C6.58512 17.2866 6.53554 17.204 6.51666 17.1122L6.26729 15.3377C6.25328 15.2404 6.21547 15.1481 6.1572 15.069C6.09893 14.9899 6.02202 14.9264 5.9333 14.8842C5.65578 14.7503 5.38947 14.5943 5.13693 14.4177C5.05607 14.3615 4.96248 14.3262 4.86459 14.3151C4.76671 14.3041 4.6676 14.3175 4.57621 14.3543L2.91037 15.0248C2.82209 15.0585 2.72478 15.0598 2.63558 15.0288C2.54638 14.9977 2.47101 14.9361 2.42275 14.8549L0.835586 12.1088C0.787868 12.0267 0.770816 11.9304 0.787465 11.837C0.804115 11.7435 0.853385 11.659 0.926504 11.5985L2.34445 10.4853C2.42214 10.4236 2.48319 10.3435 2.52207 10.2523C2.56096 10.161 2.57644 10.0615 2.56711 9.96275C2.55375 9.80801 2.54559 9.65363 2.54559 9.49889C2.54559 9.34414 2.55338 9.19199 2.56711 9.04059C2.57542 8.94244 2.55918 8.84377 2.51985 8.75347C2.48053 8.66316 2.41936 8.58406 2.34186 8.52328L0.924649 7.41C0.852716 7.34918 0.804484 7.26498 0.788404 7.17216C0.772323 7.07934 0.78942 6.98382 0.836699 6.90234L2.42387 4.15625C2.47207 4.07498 2.54741 4.01333 2.63662 3.98217C2.72582 3.951 2.82316 3.95233 2.91148 3.98592L4.5777 4.65686C4.66958 4.69344 4.76911 4.70666 4.86735 4.69532C4.9656 4.68399 5.0595 4.64846 5.14065 4.59191C5.39494 4.41681 5.66215 4.26124 5.93998 4.12656C6.02733 4.08411 6.10288 4.0208 6.15996 3.94223C6.21704 3.86366 6.2539 3.77225 6.26729 3.67605L6.51703 1.89889C6.53343 1.80503 6.58192 1.71978 6.65421 1.65772C6.7265 1.59565 6.8181 1.56061 6.91336 1.55859H10.0877C10.1814 1.56021 10.2717 1.5937 10.3438 1.65353C10.4159 1.71336 10.4655 1.79598 10.4844 1.88775L10.7338 3.66232C10.7478 3.75958 10.7856 3.85186 10.8439 3.93097C10.9021 4.01009 10.979 4.07358 11.0678 4.1158C11.3453 4.24971 11.6116 4.4057 11.8641 4.58227C11.945 4.63853 12.0386 4.67379 12.1365 4.68486C12.2343 4.69594 12.3335 4.68249 12.4248 4.64572L14.0907 3.97516C14.179 3.94154 14.2763 3.94015 14.3655 3.97125C14.4547 4.00234 14.53 4.06391 14.5783 4.14512L16.1655 6.89121C16.2132 6.97326 16.2302 7.06957 16.2136 7.16301C16.1969 7.25645 16.1477 7.34095 16.0746 7.40146L14.6566 8.51475C14.5786 8.57621 14.5172 8.65621 14.478 8.74747C14.4387 8.83873 14.423 8.93834 14.4321 9.03725C14.4443 9.19088 14.4525 9.34525 14.4525 9.5Z" stroke="#6B7280" stroke-width="1.5" stroke-linecap="round" stroke-linejoin="round"/>
</svg>
